<svg xmlns="http://www.w3.org/2000/svg" version="1.1" xmlns:xlink="http://www.w3.org/1999/xlink" xmlns:svgjs="http://svgjs.dev/svgjs" width="2000" height="1751" viewBox="0 0 2000 1751"><g transform="matrix(1,0,0,1,-0.7706358643649764,0.708906882591009)"><svg viewBox="0 0 282 247" data-background-color="#89939e" preserveAspectRatio="xMidYMid meet" height="1751" width="2000" xmlns="http://www.w3.org/2000/svg" xmlns:xlink="http://www.w3.org/1999/xlink"><g id="tight-bounds" transform="matrix(1,0,0,1,0.10865965687546009,-0.09999999999999432)"><svg viewBox="0 0 281.7826806862261 247.2" height="247.2" width="281.7826806862261"><g><svg viewBox="0 0 281.7826806862261 247.2" height="247.2" width="281.7826806862261"><g><svg viewBox="0 0 281.7826806862261 247.2" height="247.2" width="281.7826806862261"><g id="textblocktransform"><svg viewBox="0 0 281.7826806862261 247.2" height="247.2" width="281.7826806862261" id="textblock"><g><svg viewBox="0 0 281.7826806862261 247.2" height="247.2" width="281.7826806862261"><g transform="matrix(1,0,0,1,0,0)"><svg width="281.7826806862261" viewBox="0.7 -35.3 40.80833333333 35.8" height="247.2" data-palette-color="#fec110"><path d="M10.5 0.5L10.5 0.5Q7.8 0.5 5.58-0.88 3.35-2.25 2.02-4.53 0.7-6.8 0.7-9.55L0.7-9.55 0.7-11.85Q0.7-12.1 0.95-12.1L0.95-12.1 6.55-12.1Q6.75-12.1 6.75-11.85L6.75-11.85 6.75-9.55Q6.75-7.9 7.85-6.73 8.95-5.55 10.5-5.55L10.5-5.55Q12.05-5.55 13.15-6.75 14.25-7.95 14.25-9.55L14.25-9.55Q14.25-11.4 11.85-12.75L11.85-12.75Q11.05-13.2 9.35-14.15 7.65-15.1 6.15-15.95L6.15-15.95Q3.4-17.55 2.08-19.98 0.75-22.4 0.75-25.45L0.75-25.45Q0.75-28.25 2.1-30.48 3.45-32.7 5.68-34 7.9-35.3 10.5-35.3L10.5-35.3Q13.15-35.3 15.38-33.98 17.6-32.65 18.93-30.43 20.25-28.2 20.25-25.45L20.25-25.45 20.25-21.35Q20.25-21.15 20.05-21.15L20.05-21.15 14.45-21.15Q14.25-21.15 14.25-21.35L14.25-21.35 14.2-25.45Q14.2-27.2 13.1-28.3 12-29.4 10.5-29.4L10.5-29.4Q8.95-29.4 7.85-28.23 6.75-27.05 6.75-25.45L6.75-25.45Q6.75-23.8 7.45-22.7 8.15-21.6 10-20.6L10-20.6Q10.25-20.45 10.98-20.08 11.7-19.7 12.55-19.23 13.4-18.75 14.08-18.4 14.75-18.05 14.9-17.95L14.9-17.95Q17.4-16.55 18.85-14.53 20.3-12.5 20.3-9.55L20.3-9.55Q20.3-6.7 18.98-4.42 17.65-2.15 15.43-0.83 13.2 0.5 10.5 0.5ZM34.45 0L28.4 0Q28.2 0 28.15-0.25L28.15-0.25 21.25-34.6Q21.2-34.8 21.45-34.8L21.45-34.8 27.1-34.8Q27.3-34.8 27.35-34.6L27.35-34.6 31.45-11.7 35.45-34.6Q35.5-34.8 35.7-34.8L35.7-34.8 41.3-34.8Q41.55-34.8 41.5-34.6L41.5-34.6 34.7-0.25Q34.65 0 34.45 0L34.45 0Z" opacity="1" transform="matrix(1,0,0,1,0,0)" fill="#fec110" class="wordmark-text-0" data-fill-palette-color="primary" id="text-0"></path></svg></g></svg></g></svg></g></svg></g><g></g></svg></g><defs></defs></svg><rect width="281.7826806862261" height="247.2" fill="none" stroke="none" visibility="hidden"></rect></g></svg></g></svg>