<?xml version="1.0" standalone="no"?>
<!DOCTYPE svg PUBLIC "-//W3C//DTD SVG 20010904//EN"
 "http://www.w3.org/TR/2001/REC-SVG-20010904/DTD/svg10.dtd">
<svg version="1.0" xmlns="http://www.w3.org/2000/svg"
 width="2000.000000pt" height="1247.000000pt" viewBox="0 0 2000.000000 1247.000000"
 preserveAspectRatio="xMidYMid meet">

<g transform="translate(0.000000,1247.000000) scale(0.100000,-0.100000)"
fill="#000000" stroke="none">
<path d="M5865 12463 c-1336 -88 -2579 -583 -3600 -1433 -1177 -979 -1957
-2364 -2179 -3865 -53 -360 -61 -480 -61 -930 0 -450 8 -570 61 -930 258
-1745 1263 -3311 2753 -4290 891 -586 1900 -925 2991 -1005 176 -13 677 -13
855 0 1289 95 2473 556 3463 1349 l132 106 -277 3 -277 2 -115 -79 c-1414
-975 -3149 -1287 -4814 -865 -1851 469 -3379 1837 -4055 3629 -504 1339 -504
2821 0 4160 618 1639 1948 2929 3608 3497 1108 379 2327 417 3460 108 642
-175 1232 -451 1803 -843 l114 -77 277 2 276 3 -132 106 c-988 792 -2184 1257
-3463 1349 -127 9 -697 11 -820 3z"/>
<path d="M6955 10020 c-520 -53 -943 -213 -1328 -503 -330 -248 -556 -559
-652 -896 -96 -338 -83 -768 35 -1112 95 -277 249 -510 497 -749 362 -352 823
-629 1678 -1010 821 -366 1230 -643 1419 -960 226 -380 216 -947 -23 -1299
-159 -234 -438 -413 -780 -501 -238 -60 -588 -89 -865 -71 -424 28 -729 117
-991 289 -91 59 -258 227 -322 322 -160 238 -246 533 -260 888 l-6 152 -214 0
c-163 0 -213 -3 -213 -12 0 -7 -45 -322 -100 -699 -55 -378 -100 -694 -100
-702 0 -17 183 -150 330 -240 391 -238 846 -420 1292 -516 93 -20 126 -21 738
-21 608 0 645 1 733 20 233 52 532 158 742 263 259 129 430 251 615 437 230
231 379 481 465 781 48 167 66 304 66 504 0 188 -11 307 -42 465 -108 558
-504 1015 -1247 1440 -192 109 -451 235 -767 370 -336 144 -776 362 -983 487
-389 235 -639 470 -743 698 -94 208 -124 537 -69 765 82 342 384 643 768 764
199 63 376 87 642 88 222 0 355 -12 520 -48 596 -132 895 -496 927 -1126 l6
-128 207 0 208 0 6 33 c17 98 167 1281 163 1290 -6 16 -272 153 -432 222 -320
140 -738 248 -1155 300 -149 19 -634 28 -765 15z"/>
<path d="M9990 7136 l0 -203 188 -47 c103 -26 204 -52 224 -57 l36 -9 127
-298 c69 -163 487 -1147 928 -2187 l802 -1890 348 0 348 0 914 2175 c502 1196
917 2181 922 2188 4 7 89 33 188 58 99 25 197 50 218 55 l37 10 0 204 0 205
-805 0 -805 0 0 -204 0 -203 208 -33 c345 -55 347 -55 347 -68 0 -16 -1379
-3581 -1385 -3582 -5 0 -1480 3563 -1477 3567 1 1 119 25 262 53 143 28 270
54 283 57 22 5 22 6 22 209 l0 204 -965 0 -965 0 0 -204z"/>
</g>
</svg>
